<svg width="59" height="52" viewBox="0 0 59 52" fill="none" xmlns="http://www.w3.org/2000/svg">
<path d="M16.5915 43.8786H21.5075C23.2017 43.8786 24.58 42.5003 24.58 40.8061H13.519C13.519 42.5003 14.8973 43.8786 16.5915 43.8786Z" fill="#CAD0F6"/>
<path d="M33.183 38.9626H4.91598C4.23819 38.9626 3.68698 38.4114 3.68698 37.7336V19.2986C3.68698 18.6208 4.23819 18.0696 4.91598 18.0696H6.75948V19.2986H4.91598V37.7336H33.183V19.2986H31.3395V18.0696H33.183C33.8608 18.0696 34.412 18.6208 34.412 19.2986V37.7336C34.412 38.4114 33.8608 38.9626 33.183 38.9626Z" fill="#F2F4F5"/>
<path fill-rule="evenodd" clip-rule="evenodd" d="M36.87 18.6841V40.1916H38.099V42.0351C38.099 44.4071 36.1689 46.3366 33.7975 46.3366H4.3015C1.93014 46.3366 0 44.4071 0 42.0351V40.1916H1.229V18.6841C1.229 16.9899 2.60732 15.6116 4.3015 15.6116H6.7595V16.8406H4.3015C3.28512 16.8406 2.458 17.6677 2.458 18.6841V40.1916H35.641V18.6841C35.641 17.6677 34.8139 16.8406 33.7975 16.8406H31.3395V15.6116H33.7975C35.4917 15.6116 36.87 16.9899 36.87 18.6841ZM33.7975 45.1076C35.4917 45.1076 36.87 43.7293 36.87 42.0351V41.4206H1.22899V42.0351C1.22899 43.7293 2.60732 45.1076 4.3015 45.1076H33.7975Z" fill="#1E0A3C"/>
<path d="M32 39H4V13H32V39Z" fill="#CAD0F6"/>
<path d="M12.29 32.8176H11.061V27.9016H6.14496V26.6726H12.29V32.8176Z" fill="#1E0A3C"/>
<path d="M8.60303 29.1306H9.83203V30.3596H8.60303V29.1306Z" fill="#1E0A3C"/>
<path d="M31.954 14.3826H25.809V8.23763H27.038V13.1536H31.954V14.3826Z" fill="#1E0A3C"/>
<path d="M28.267 10.6956H29.496V11.9246H28.267V10.6956Z" fill="#1E0A3C"/>
<path d="M27.038 24.2146H25.809V21.7566C25.809 21.0788 26.3602 20.5276 27.038 20.5276H28.267V15.6116H29.496V20.5276C29.496 21.2054 28.9448 21.7566 28.267 21.7566H27.038V24.2146Z" fill="#1E0A3C"/>
<path d="M28.267 22.9856H29.496V24.2146H28.267V22.9856Z" fill="#1E0A3C"/>
<path d="M24.58 18.0696H23.351V16.8406C23.351 16.1628 23.9022 15.6116 24.58 15.6116H27.038V16.8406H24.58V18.0696Z" fill="#1E0A3C"/>
<path d="M25.809 18.0696H27.038V19.2986H25.809V18.0696Z" fill="#1E0A3C"/>
<path d="M8.60303 15.6116H14.1335V16.8406H8.60303V15.6116Z" fill="#1E0A3C"/>
<path d="M14.1335 21.7566H9.83203C9.15423 21.7566 8.60303 21.2054 8.60303 20.5276V18.0696H9.83203V20.5276H14.1335V21.7566Z" fill="#1E0A3C"/>
<path d="M15.3625 19.2986H11.061V18.0696H15.3625V15.6116H16.5915V18.0696C16.5915 18.7474 16.0403 19.2986 15.3625 19.2986Z" fill="#1E0A3C"/>
<path d="M11.061 25.4436H9.83203V24.2146H8.60303V22.9856H9.83203C10.5098 22.9856 11.061 23.5368 11.061 24.2146V25.4436Z" fill="#1E0A3C"/>
<path d="M17.206 30.3596H14.748C14.0702 30.3596 13.519 29.8084 13.519 29.1306V25.4436H12.29V24.2146H13.519C14.1968 24.2146 14.748 24.7658 14.748 25.4436V29.1306H17.206V30.3596Z" fill="#1E0A3C"/>
<path d="M17.206 27.9016H15.977V25.4436C15.977 24.7658 16.5282 24.2146 17.206 24.2146H18.435V25.4436H17.206V27.9016Z" fill="#1E0A3C"/>
<path d="M17.8205 22.9856H15.3625V21.7566H17.8205V19.2986H19.0495V21.7566C19.0495 22.4344 18.4983 22.9856 17.8205 22.9856Z" fill="#1E0A3C"/>
<path d="M22.122 19.2986H20.893V18.0696H17.8205V16.8406H20.893C21.5708 16.8406 22.122 17.3918 22.122 18.0696V19.2986Z" fill="#1E0A3C"/>
<path d="M23.351 21.7566H20.2785V20.5276H23.351V19.2986H24.58V20.5276C24.58 21.2054 24.0288 21.7566 23.351 21.7566Z" fill="#1E0A3C"/>
<path d="M20.893 25.4436H19.664V24.2146C19.664 23.5368 20.2152 22.9856 20.893 22.9856H24.58V24.2146H20.893V25.4436Z" fill="#1E0A3C"/>
<path d="M19.664 30.3596H18.435V27.9016C18.435 27.2238 18.9862 26.6726 19.664 26.6726H22.122V25.4436H23.351V26.6726C23.351 27.3504 22.7998 27.9016 22.122 27.9016H19.664V30.3596Z" fill="#1E0A3C"/>
<path d="M25.809 30.3596H20.893V29.1306H25.809V27.9016H27.038V29.1306C27.038 29.8084 26.4868 30.3596 25.809 30.3596Z" fill="#1E0A3C"/>
<path d="M29.496 30.3596H28.267V26.6726H24.58V25.4436H28.267C28.9448 25.4436 29.496 25.9948 29.496 26.6726V30.3596Z" fill="#1E0A3C"/>
<path d="M6.14496 34.0466H18.435V35.2756H6.14496V34.0466Z" fill="#1E0A3C"/>
<path d="M19.664 34.0466H20.893V35.2756H19.664V34.0466Z" fill="#1E0A3C"/>
<path d="M22.122 34.0466H31.3395V35.2756H22.122V34.0466Z" fill="#1E0A3C"/>
<g filter="url(#filter0_d_3141_669)">
<rect x="25.2277" width="26.2574" height="52" rx="6" fill="white"/>
<rect x="25.7277" y="0.5" width="25.2574" height="51" rx="5.5" stroke="#1E0A3C"/>
</g>
<path d="M47.1518 43.7623H29.561C28.5909 43.7623 27.8019 42.7708 27.8019 41.5515V8.38902C27.8019 7.16975 28.5909 6.17819 29.561 6.17819H47.1518C48.1219 6.17819 48.9109 7.16975 48.9109 8.38902V41.5515C48.9109 42.7708 48.1219 43.7623 47.1518 43.7623Z" fill="#A3ADF0"/>
<path d="M38.4976 2.57423H42.1846V3.80323H38.4976V2.57423Z" fill="#1E0A3C"/>
<path d="M33.4653 45.8218H42.2178V47.3663H33.4653V45.8218Z" fill="#1E0A3C"/>
<path d="M36.0396 2.57423H37.2686V3.80323H36.0396V2.57423Z" fill="#1E0A3C"/>
<path d="M46.2204 17.0731H47.4494V13.3861H43.7624V14.6151H46.2204V17.0731Z" fill="#CAD0F6"/>
<path d="M31.0904 31.2871H29.8614V34.9741H33.5484V33.7451H31.0904V31.2871Z" fill="#CAD0F6"/>
<path d="M43.7624 33.7451V34.9741H47.4494V31.2871H46.2204V33.7451H43.7624Z" fill="#CAD0F6"/>
<path d="M31.0904 14.6151H33.5484V13.3861H29.8614V17.0731H31.0904V14.6151Z" fill="#CAD0F6"/>
<path d="M51.4519 45.2405C48.0635 45.2405 45.3069 42.4838 45.3069 39.0955C45.3069 35.7071 48.0635 32.9505 51.4519 32.9505C54.8402 32.9505 57.5969 35.7071 57.5969 39.0955C57.5969 42.4838 54.8402 45.2405 51.4519 45.2405Z" fill="#93BFB1" stroke="#1E0A3C"/>
<path d="M50.6905 40.0063L49.2815 38.5972L48.4126 39.4661L50.6905 41.7441L58.499 33.9356L57.6301 33.0667L50.6905 40.0063Z" fill="#1E0A3C"/>
<path d="M34.9291 30.0015H34.1433V26.8582H31V26.0724H34.9291V30.0015Z" fill="#1E0A3C"/>
<path d="M32.5717 27.644H33.3575V28.4298H32.5717V27.644Z" fill="#1E0A3C"/>
<path d="M42.7873 20.5716H42.0015V19.7858C42.0015 19.3524 42.3539 19 42.7873 19H44.3589V19.7858H42.7873V20.5716Z" fill="#1E0A3C"/>
<path d="M32.5717 19H36.1079V19.7858H32.5717V19Z" fill="#1E0A3C"/>
<path d="M36.1079 22.9291H33.3575C32.9241 22.9291 32.5717 22.5767 32.5717 22.1433V20.5716H33.3575V22.1433H36.1079V22.9291Z" fill="#1E0A3C"/>
<path d="M36.8936 21.3575H34.1432V20.5716H36.8936V19H37.6794V20.5716C37.6794 21.005 37.327 21.3575 36.8936 21.3575Z" fill="#1E0A3C"/>
<path d="M34.1433 25.2866H33.3575V24.5008H32.5717V23.7149H33.3575C33.7909 23.7149 34.1433 24.0674 34.1433 24.5008V25.2866Z" fill="#1E0A3C"/>
<path d="M38.0725 28.4299H36.5008C36.0674 28.4299 35.715 28.0774 35.715 27.644V25.2866H34.9292V24.5008H35.715C36.1484 24.5008 36.5008 24.8532 36.5008 25.2866V27.644H38.0725V28.4299Z" fill="#1E0A3C"/>
<path d="M38.0723 26.8582H37.2865V25.2866C37.2865 24.8532 37.6389 24.5008 38.0723 24.5008H38.8581V25.2866H38.0723V26.8582Z" fill="#1E0A3C"/>
<path d="M38.4653 23.715H36.8937V22.9291H38.4653V21.3575H39.2511V22.9291C39.2511 23.3625 38.8987 23.715 38.4653 23.715Z" fill="#1E0A3C"/>
<path d="M42.0015 22.9291H40.0369V22.1433H42.0015V21.3575H42.7873V22.1433C42.7873 22.5767 42.4348 22.9291 42.0015 22.9291Z" fill="#1E0A3C"/>
<path d="M40.4299 25.2866H39.644V24.5008C39.644 24.0674 39.9965 23.7149 40.4299 23.7149H42.7873V24.5008H40.4299V25.2866Z" fill="#1E0A3C"/>
<path d="M39.644 28.4299H38.8582V26.8582C38.8582 26.4249 39.2106 26.0724 39.644 26.0724H41.2157V25.2866H42.0015V26.0724C42.0015 26.5058 41.649 26.8582 41.2157 26.8582H39.644V28.4299Z" fill="#1E0A3C"/>
<path d="M43.5733 28.4299H40.43V27.6441H43.5733V26.8582H44.3591V27.6441C44.3591 28.0774 44.0066 28.4299 43.5733 28.4299Z" fill="#1E0A3C"/>
<path d="M45.9307 28.4299H45.1449V26.0724H42.7874V25.2866H45.1449C45.5782 25.2866 45.9307 25.639 45.9307 26.0724V28.4299Z" fill="#1E0A3C"/>
<defs>
<filter id="filter0_d_3141_669" x="25.2277" y="0" width="26.2574" height="52" filterUnits="userSpaceOnUse" color-interpolation-filters="sRGB">
<feFlood flood-opacity="0" result="BackgroundImageFix"/>
<feColorMatrix in="SourceAlpha" type="matrix" values="0 0 0 0 0 0 0 0 0 0 0 0 0 0 0 0 0 0 127 0" result="hardAlpha"/>
<feMorphology radius="4" operator="erode" in="SourceAlpha" result="effect1_dropShadow_3141_669"/>
<feOffset dx="2" dy="2"/>
<feGaussianBlur stdDeviation="1"/>
<feColorMatrix type="matrix" values="0 0 0 0 0.1375 0 0 0 0 0.034375 0 0 0 0 0.034375 0 0 0 0.54 0"/>
<feBlend mode="normal" in2="BackgroundImageFix" result="effect1_dropShadow_3141_669"/>
<feBlend mode="normal" in="SourceGraphic" in2="effect1_dropShadow_3141_669" result="shape"/>
</filter>
</defs>
</svg>
