<svg viewBox="0 0 345 75" version="1.1" xmlns="http://www.w3.org/2000/svg" xmlns:xlink="http://www.w3.org/1999/xlink"><title>New Logo Copy@1.5x</title><g id="Style-Guide" stroke="none" stroke-width="1" fill="none" fill-rule="evenodd"><g id="1Kosmos-Logo-Evolution" transform="translate(-223.000000, -375.000000)"><g id="1Kosmos-logo" transform="translate(223.000000, 375.000000)"><polygon id="Path" fill="#EE0000" points="49.5632037 24.9943356 74.3716017 24.9943356 74.3716017 0 49.5632037 0"/><polygon id="Path" fill="#EE0000" points="32.849719 12.0462426 44.8063104 12.0462426 44.8063104 0 32.849719 0"/><polygon id="Path" fill="#EE0000" points="32.849719 41.8085948 44.8063104 41.8085948 44.8063104 29.7623119 32.849719 29.7623119"/><polygon id="Path" fill="#EE0000" points="62.4166093 41.8085948 74.3716017 41.8085948 74.3716017 29.7623119 62.4166093 29.7623119"/><path d="M112.805701,17.4494364 C112.534278,17.3387418 112.432345,17.2785106 111.79576,17.223163 C110.834388,17.2020007 109.506256,18.0403545 109.506256,18.0403545 L98.877797,27.748974 L103.111032,32.4551384 L108.470532,27.5585046 L108.470532,55.6733972 L114.775215,55.6733972 L114.775215,20.3926273 C114.770418,20.2070506 114.773616,20.1614668 114.749431,19.97589 C114.600729,18.8608004 113.830032,17.8661717 112.805701,17.4494364 Z" id="Path" fill="#000000"/><polygon id="Path" fill="#000000" points="154.727123 18.0256969 144.408861 18.0256969 129.472616 31.0942487 129.472616 18.0256969 123.169532 18.0256969 123.169532 55.7271555 129.472616 55.7271555 129.472616 42.6862439 146.077971 55.7271555 156.817957 55.7271555 133.061272 36.96433"/><path d="M216.466202,34.0388933 C213.002464,32.6747218 208.785218,33.3095929 204.761846,33.2851903 C203.450702,33.2591366 202.179532,32.6112387 201.38605,31.551496 C199.263237,28.7255222 201.641883,24.5125849 204.765843,24.4539945 C210.246264,24.4198066 215.732681,24.4539945 221.2151,24.4539945 L221.2151,18.0157586 L204.809814,18.0157586 C200.520615,18.0418042 196.516431,20.8466331 194.954051,24.8381547 C192.830838,30.2540894 195.808693,36.98533 201.044273,39.0186008 C204.444053,40.3371885 208.603337,39.6989349 212.560752,39.7251093 C213.644045,39.7446395 214.705352,40.1434977 215.528814,40.8498049 C218.916601,43.7571812 216.250343,49.2642835 212.560752,49.3343504 C206.882461,49.3701893 201.204169,49.3343504 195.527676,49.3343504 L195.527676,55.7726587 L212.510785,55.7726587 C216.983864,55.7448736 221.107171,52.839108 222.724115,48.7059625 C224.92068,43.0963772 221.850685,36.1616203 216.466202,34.0388933 Z" id="Path" fill="#000000"/><path d="M338.026812,34.0388933 C334.561075,32.6747218 330.34383,33.3095929 326.322456,33.2851903 C325.011312,33.2591366 323.740142,32.6112387 322.944662,31.551496 C320.822048,28.7255222 323.202494,24.5125849 326.326453,24.4539945 C331.806874,24.4198066 337.291292,24.4539945 342.773712,24.4539945 L342.773712,18.0157586 L326.370425,18.0157586 C322.055243,18.0434331 318.073843,20.8466331 316.512862,24.8381547 C314.410236,30.2036331 317.300348,36.8843973 322.480965,38.9696747 C325.91872,40.3532959 330.117977,39.6989349 334.121363,39.7251093 C335.678346,39.7543039 337.169372,40.5926913 338.006825,41.9112791 C339.987531,45.0254335 337.421207,49.2725385 334.121363,49.3343504 C328.441072,49.3701893 322.764779,49.3343504 317.086488,49.3343504 L317.086488,55.7726587 L334.071395,55.7726587 C338.540477,55.7448736 342.665782,52.839108 344.284725,48.7059625 C346.479292,43.0963772 343.407298,36.1616203 338.026812,34.0388933 Z" id="Path" fill="#000000"/><path d="M295.224765,17.7101318 C292.556508,17.7020781 289.864266,18.2816003 287.429856,19.4259851 C279.483046,23.1700979 275.061933,32.9259159 277.068623,41.4739646 C278.467709,47.439925 282.822865,52.6444104 288.479171,54.8843385 C294.878991,57.4204404 302.480027,55.8691015 307.456777,51.2720644 C312.563442,46.551202 314.760007,38.9197419 313.085101,32.1543135 C311.074414,24.0182102 303.383437,17.7932376 295.224765,17.7101318 Z M306.969095,40.1682627 C305.81385,44.8436218 301.902404,48.7341504 297.257438,49.5985109 C288.061444,51.3111247 281.223909,41.6318166 283.260579,33.6128741 C284.613695,28.2767312 289.612431,24.117512 295.026895,24.0621631 C295.130827,24.0605322 295.236758,24.0621631 295.34069,24.063794 C303.345462,24.2477399 308.781911,32.8461442 306.969095,40.1682627 Z" id="Shape" fill="#000000"/><path d="M173.467883,17.7101318 C170.798626,17.7020781 168.106784,18.2816003 165.673374,19.4259851 C157.727163,23.1700979 153.304652,32.9259159 155.311541,41.4739646 C156.710827,47.439925 161.066782,52.6444104 166.722089,54.8843385 C173.122109,57.4204404 180.722745,55.8691015 185.699295,51.2720644 C190.806759,46.551202 193.004124,38.9197419 191.328619,32.1543135 C189.316932,24.0182102 181.625955,17.7932376 173.467883,17.7101318 Z M185.211214,40.1682627 C184.055968,44.8436218 180.145922,48.7341504 175.500556,49.5985109 C166.30676,51.3111247 159.467227,41.6318166 161.503097,33.6128741 C162.857213,28.2767312 167.854749,24.117512 173.269213,24.0621631 C173.374144,24.0605322 173.479276,24.0621631 173.584207,24.063794 C181.58878,24.2477399 187.025829,32.8461442 185.211214,40.1682627 Z" id="Shape" fill="#000000"/><path d="M257.369488,50.3986434 L264.984515,24.3299477 C265.078454,24.0027471 265.330289,23.7748483 265.592118,23.7748483 C265.945887,23.7748483 266.243693,24.1622703 266.243693,24.6213297 L266.243693,55.6452094 L272.475623,55.6452094 L272.475623,24.6213297 C272.475623,20.6916603 269.385641,17.4945228 265.592118,17.4945228 C262.536114,17.4945228 259.889842,19.529354 259.00442,22.5571932 L251.389394,48.6276405 C251.171536,49.3764309 250.569929,49.8777721 249.890373,49.8777721 C249.016943,49.8777721 248.305408,49.0556933 248.305408,48.0431451 L248.305408,24.6213297 C248.305408,20.6916603 245.217425,17.4945228 241.421903,17.4945228 C238.367898,17.4945228 235.719627,19.529354 234.834206,22.558824 L225.176513,55.6452094 L231.672271,55.6452094 L240.8143,24.3299477 C240.908239,24.004378 241.160074,23.7748483 241.421903,23.7748483 C241.775672,23.7748483 242.073478,24.1622703 242.073478,24.6213297 L242.073478,48.0431451 C242.073478,52.5165584 245.581187,56.158027 249.890373,56.158027 C253.358108,56.158027 256.364145,53.8431998 257.369488,50.3986434 Z" id="Path" fill="#000000"/><path d="M64.5354255,46.6148261 C60.662355,57.8911777 50.0338963,65.9945831 37.5246659,65.9945831 C21.7369766,65.9945831 8.9384152,53.1002484 8.9384152,37.1960543 C8.9384152,24.6548732 16.899316,13.9907216 28.0044834,10.0398711 L28.0044834,0.622649669 C11.8904273,4.86651304 0,19.6311927 0,37.1960543 C0,58.0766135 16.8007404,75 37.5246659,75 C55.0200399,75 69.7188403,62.9376098 73.8729273,46.6148261 L64.5354255,46.6148261 Z" id="Path" fill="#000000"/></g></g></g></svg>